<svg xmlns="http://www.w3.org/2000/svg" x="0px" y="0px" width="40" height="40" viewBox="0 0 172 172" style=" fill:#000000;">
  <g transform="">
    <g fill="none" fill-rule="nonzero" stroke="none" stroke-width="1" stroke-linecap="butt" stroke-linejoin="miter" stroke-miterlimit="10" stroke-dasharray="" stroke-dashoffset="0" font-family="none" font-weight="none" font-size="none" text-anchor="none" style="mix-blend-mode: normal">
      <path d="M0,172v-172h172v172z" fill="#1b1b1b"></path>
      <g id="original-icon" fill="#9d9d9d">
        <path d="M86,14.33333c-23.35568,0 -44.08439,11.30461 -57.17936,28.66667h-0.15397v0.19596c-8.95867,11.96367 -14.33333,26.75346 -14.33333,42.80404c0,39.49552 32.17115,71.66667 71.66667,71.66667c39.49552,0 71.66667,-32.17115 71.66667,-71.66667c0,-39.49552 -32.17115,-71.66667 -71.66667,-71.66667zM107.5,32.85189c21.03487,8.48086 35.83333,29.01541 35.83333,53.14811c0,14.96279 -5.72913,28.51128 -15.06119,38.7028c-1.83363,-5.80288 -7.19441,-10.03614 -13.60547,-10.03614c-3.956,0 -7.16667,-3.21067 -7.16667,-7.16667v-14.33333c0,-3.956 -3.21067,-7.16667 -7.16667,-7.16667h-28.66667c-3.956,0 -7.16667,-3.21067 -7.16667,-7.16667c0,-3.956 3.21067,-7.16667 7.16667,-7.16667c3.956,0 7.16667,-3.21067 7.16667,-7.16667v-7.16667c0,-3.956 3.21067,-7.16667 7.16667,-7.16667h7.16667c7.91917,0 14.33333,-6.41417 14.33333,-14.33333zM30.15039,73.15039l34.34961,34.34961v7.16667c0,7.91917 6.41417,14.33333 14.33333,14.33333v13.84343c-28.33863,-3.51516 -50.16667,-27.52707 -50.16667,-56.84343c0,-4.42765 0.54126,-8.71442 1.48372,-12.84961z"></path>
      </g>
      <path d="" fill="none"></path>
      <path d="" fill="none"></path>
      <path d="" fill="none"></path>
      <path d="" fill="none"></path>
    </g>
  </g>
</svg>